<svg width="300" height="164" viewBox="0 0 300 164" fill="none" xmlns="http://www.w3.org/2000/svg">
<path d="M3.648 91V46.392H14.528L33.216 70.712V46.392H44.864V91H34.944L15.296 65.72V91H3.648ZM57.588 85.176C52.8093 80.6533 50.42 75.2133 50.42 68.856C50.42 62.4987 52.8093 57.0587 57.588 52.536C62.3667 48.0133 68.1693 45.752 74.996 45.752C81.8227 45.752 87.6253 48.0133 92.404 52.536C97.2253 57.016 99.636 62.456 99.636 68.856C99.636 75.2133 97.2253 80.6533 92.404 85.176C87.6253 89.656 81.8227 91.896 74.996 91.896C68.1693 91.896 62.3667 89.656 57.588 85.176ZM62.836 68.856C62.836 72.2693 64.0093 75.1493 66.356 77.496C68.7453 79.8427 71.6253 81.016 74.996 81.016C78.324 81.016 81.1827 79.8213 83.572 77.432C86.004 75 87.22 72.1413 87.22 68.856C87.22 65.5707 86.004 62.712 83.572 60.28C81.1827 57.848 78.324 56.632 74.996 56.632C71.668 56.632 68.8093 57.848 66.42 60.28C64.0307 62.6693 62.836 65.528 62.836 68.856ZM112.977 91V57.4H100.945V46.392H136.913V57.4H125.137V91H112.977ZM141.154 91V46.392H153.314V91H141.154ZM166.276 85.176C161.497 80.6533 159.108 75.2133 159.108 68.856C159.108 62.4987 161.497 57.0587 166.276 52.536C171.054 48.0133 176.857 45.752 183.684 45.752C190.51 45.752 196.313 48.0133 201.092 52.536C205.913 57.016 208.324 62.456 208.324 68.856C208.324 75.2133 205.913 80.6533 201.092 85.176C196.313 89.656 190.51 91.896 183.684 91.896C176.857 91.896 171.054 89.656 166.276 85.176ZM171.524 68.856C171.524 72.2693 172.697 75.1493 175.044 77.496C177.433 79.8427 180.313 81.016 183.684 81.016C187.012 81.016 189.87 79.8213 192.26 77.432C194.692 75 195.908 72.1413 195.908 68.856C195.908 65.5707 194.692 62.712 192.26 60.28C189.87 57.848 187.012 56.632 183.684 56.632C180.356 56.632 177.497 57.848 175.108 60.28C172.718 62.6693 171.524 65.528 171.524 68.856ZM213.898 91V46.392H224.778L243.466 70.712V46.392H255.114V91H245.194L225.546 65.72V91H213.898ZM14.336 155L0.64 110.392H12.544L20.096 135.352L26.752 110.392H36.544L43.2 135.288L50.752 110.392H62.656L48.896 155H38.208L31.616 132.088L25.088 155H14.336ZM67.2165 155V110.392H79.3765V155H67.2165ZM86.898 155V110.392H105.01C112.733 110.392 118.642 112.461 122.738 116.6C126.877 120.739 128.946 126.136 128.946 132.792C128.946 139.576 126.898 144.973 122.802 148.984C118.749 152.995 112.839 155 105.074 155H86.898ZM99.058 143.992H104.306C106.866 143.992 108.999 143.715 110.706 143.16C112.455 142.563 113.735 141.709 114.546 140.6C115.399 139.491 115.975 138.339 116.274 137.144C116.573 135.907 116.722 134.456 116.722 132.792C116.722 131.171 116.573 129.763 116.274 128.568C115.975 127.373 115.399 126.243 114.546 125.176C113.693 124.109 112.413 123.299 110.706 122.744C108.999 122.189 106.845 121.912 104.242 121.912H99.058V143.992ZM139.835 149.112C135.142 144.76 132.795 139.299 132.795 132.728C132.795 126.157 135.142 120.696 139.835 116.344C144.571 111.949 150.331 109.752 157.115 109.752C164.368 109.752 170.406 112.397 175.227 117.688L166.971 124.6C164.411 121.955 161.126 120.632 157.115 120.632C153.702 120.632 150.822 121.784 148.475 124.088C146.128 126.392 144.955 129.272 144.955 132.728C144.955 136.184 146.128 139.064 148.475 141.368C150.822 143.629 153.702 144.76 157.115 144.76C161.083 144.76 164.176 143.48 166.395 140.92V137.912H154.875V127.8H176.891V145.72C174.8 148.707 172.006 151.117 168.507 152.952C165.051 154.744 161.254 155.64 157.115 155.64C150.331 155.64 144.571 153.464 139.835 149.112ZM182.773 155V110.392H215.669V121.336H194.933V127.48H214.261V137.464H194.933V144.248H216.181V155H182.773ZM231.102 155V121.4H219.07V110.392H255.038V121.4H243.262V155H231.102Z" fill="white"/>
<path d="M2.944 27V4.696H5.44V16.536L16.16 4.696H19.232L10.336 14.424L19.488 27H16.48L8.672 16.248L5.44 19.768V27H2.944ZM20.5575 27L29.9975 4.696H31.9175L41.3575 27H38.6695L36.3655 21.496H25.5495L23.2455 27H20.5575ZM26.5095 19.192H35.4055L30.9575 8.568L26.5095 19.192ZM45.5408 27V4.696H48.0368V27H45.5408ZM54.0378 27V4.696H56.5338V24.696H65.7178V27H54.0378ZM70.5515 24.152C68.3115 21.9333 67.1915 19.1707 67.1915 15.864C67.1915 12.5573 68.3115 9.80533 70.5515 7.608C72.8128 5.38933 75.5648 4.28 78.8075 4.28C82.0502 4.28 84.7915 5.38933 87.0315 7.608C89.2928 9.80533 90.4235 12.5573 90.4235 15.864C90.4235 19.1707 89.2928 21.9333 87.0315 24.152C84.7915 26.3493 82.0502 27.448 78.8075 27.448C75.5648 27.448 72.8128 26.3493 70.5515 24.152ZM72.2475 9.24C70.5195 10.9893 69.6555 13.1973 69.6555 15.864C69.6555 18.5307 70.5195 20.7493 72.2475 22.52C73.9968 24.2693 76.1835 25.144 78.8075 25.144C81.4315 25.144 83.6075 24.2693 85.3355 22.52C87.0635 20.7493 87.9275 18.5307 87.9275 15.864C87.9275 13.1973 87.0635 10.9893 85.3355 9.24C83.6075 7.46933 81.4315 6.584 78.8075 6.584C76.1835 6.584 73.9968 7.46933 72.2475 9.24ZM94.7215 19.192V4.696H97.2175V18.936C97.2175 20.9413 97.7402 22.4667 98.7855 23.512C99.8308 24.5573 101.26 25.08 103.074 25.08C104.887 25.08 106.316 24.5573 107.362 23.512C108.407 22.4667 108.93 20.9413 108.93 18.936V4.696H111.426V19.192C111.426 21.816 110.658 23.8427 109.122 25.272C107.586 26.68 105.57 27.384 103.074 27.384C100.578 27.384 98.5615 26.68 97.0255 25.272C95.4895 23.8427 94.7215 21.816 94.7215 19.192ZM115.375 22.104L117.519 21.112C118.628 23.8 120.495 25.144 123.119 25.144C124.057 25.144 124.847 25.0053 125.487 24.728C126.148 24.4293 126.617 24.0453 126.895 23.576C127.172 23.1067 127.353 22.6907 127.439 22.328C127.545 21.9653 127.599 21.592 127.599 21.208C127.599 19.992 127.225 19.064 126.479 18.424C125.732 17.784 124.441 17.0587 122.607 16.248C120.58 15.352 119.097 14.4667 118.159 13.592C117.22 12.7173 116.751 11.4587 116.751 9.816C116.751 8.216 117.327 6.89333 118.479 5.848C119.631 4.80267 121.092 4.28 122.863 4.28C125.593 4.28 127.599 5.464 128.879 7.832L126.735 8.92C125.903 7.36267 124.601 6.584 122.831 6.584C121.828 6.584 120.975 6.88267 120.271 7.48C119.588 8.07733 119.247 8.83467 119.247 9.752C119.247 10.328 119.332 10.8293 119.503 11.256C119.695 11.6613 120.047 12.056 120.559 12.44C121.092 12.8027 121.529 13.08 121.871 13.272C122.233 13.4427 122.873 13.7307 123.791 14.136C126.052 15.1387 127.663 16.1307 128.623 17.112C129.604 18.072 130.095 19.4267 130.095 21.176C130.095 23.0107 129.476 24.5147 128.239 25.688C127.023 26.8613 125.305 27.448 123.087 27.448C121.316 27.448 119.748 27 118.383 26.104C117.017 25.208 116.015 23.8747 115.375 22.104ZM130.903 12.76L133.943 4.696H137.111L132.919 12.76H130.903ZM138.312 22.104L140.456 21.112C141.565 23.8 143.432 25.144 146.056 25.144C146.995 25.144 147.784 25.0053 148.424 24.728C149.085 24.4293 149.555 24.0453 149.832 23.576C150.109 23.1067 150.291 22.6907 150.376 22.328C150.483 21.9653 150.536 21.592 150.536 21.208C150.536 19.992 150.163 19.064 149.416 18.424C148.669 17.784 147.379 17.0587 145.544 16.248C143.517 15.352 142.035 14.4667 141.096 13.592C140.157 12.7173 139.688 11.4587 139.688 9.816C139.688 8.216 140.264 6.89333 141.416 5.848C142.568 4.80267 144.029 4.28 145.8 4.28C148.531 4.28 150.536 5.464 151.816 7.832L149.672 8.92C148.84 7.36267 147.539 6.584 145.768 6.584C144.765 6.584 143.912 6.88267 143.208 7.48C142.525 8.07733 142.184 8.83467 142.184 9.752C142.184 10.328 142.269 10.8293 142.44 11.256C142.632 11.6613 142.984 12.056 143.496 12.44C144.029 12.8027 144.467 13.08 144.808 13.272C145.171 13.4427 145.811 13.7307 146.728 14.136C148.989 15.1387 150.6 16.1307 151.56 17.112C152.541 18.072 153.032 19.4267 153.032 21.176C153.032 23.0107 152.413 24.5147 151.176 25.688C149.96 26.8613 148.243 27.448 146.024 27.448C144.253 27.448 142.685 27 141.32 26.104C139.955 25.208 138.952 23.8747 138.312 22.104Z" fill="#33CEE3"/>
</svg>
